<mxfile host="app.diagrams.net" modified="2020-07-31T08:44:24.542Z" agent="5.0 (Macintosh; Intel Mac OS X 10_15_4) AppleWebKit/537.36 (KHTML, like Gecko) Chrome/84.0.4147.105 Safari/537.36" etag="z13Ll9j55_PUIGqG9jNs" version="13.5.5" type="github">
  <diagram id="C5RBs43oDa-KdzZeNtuy" name="Page-1">
    <mxGraphModel dx="2377" dy="1203" grid="1" gridSize="10" guides="1" tooltips="1" connect="1" arrows="1" fold="1" page="1" pageScale="1" pageWidth="827" pageHeight="1169" math="0" shadow="0">
      <root>
        <mxCell id="WIyWlLk6GJQsqaUBKTNV-0" />
        <mxCell id="WIyWlLk6GJQsqaUBKTNV-1" parent="WIyWlLk6GJQsqaUBKTNV-0" />
        <mxCell id="39B1gfTcantBv1lsYMs9-27" value="UIViewController" style="swimlane;fontStyle=2;align=center;verticalAlign=top;childLayout=stackLayout;horizontal=1;startSize=26;horizontalStack=0;resizeParent=1;resizeLast=0;collapsible=1;marginBottom=0;rounded=0;shadow=0;strokeWidth=1;fillColor=#d5e8d4;strokeColor=#82b366;" vertex="1" parent="WIyWlLk6GJQsqaUBKTNV-1">
          <mxGeometry x="150" y="220" width="190" height="150" as="geometry">
            <mxRectangle x="230" y="140" width="160" height="26" as="alternateBounds" />
          </mxGeometry>
        </mxCell>
        <mxCell id="39B1gfTcantBv1lsYMs9-28" value="href&#xa;" style="text;align=left;verticalAlign=top;spacingLeft=4;spacingRight=4;overflow=hidden;rotatable=0;points=[[0,0.5],[1,0.5]];portConstraint=eastwest;" vertex="1" parent="39B1gfTcantBv1lsYMs9-27">
          <mxGeometry y="26" width="190" height="26" as="geometry" />
        </mxCell>
        <mxCell id="39B1gfTcantBv1lsYMs9-29" value="pid" style="text;align=left;verticalAlign=top;spacingLeft=4;spacingRight=4;overflow=hidden;rotatable=0;points=[[0,0.5],[1,0.5]];portConstraint=eastwest;" vertex="1" parent="39B1gfTcantBv1lsYMs9-27">
          <mxGeometry y="52" width="190" height="26" as="geometry" />
        </mxCell>
        <mxCell id="39B1gfTcantBv1lsYMs9-30" value="" style="line;html=1;strokeWidth=1;align=left;verticalAlign=middle;spacingTop=-1;spacingLeft=3;spacingRight=3;rotatable=0;labelPosition=right;points=[];portConstraint=eastwest;" vertex="1" parent="39B1gfTcantBv1lsYMs9-27">
          <mxGeometry y="78" width="190" height="12" as="geometry" />
        </mxCell>
        <mxCell id="39B1gfTcantBv1lsYMs9-31" value="func xxx" style="text;align=left;verticalAlign=top;spacingLeft=4;spacingRight=4;overflow=hidden;rotatable=0;points=[[0,0.5],[1,0.5]];portConstraint=eastwest;whiteSpace=wrap;" vertex="1" parent="39B1gfTcantBv1lsYMs9-27">
          <mxGeometry y="90" width="190" height="60" as="geometry" />
        </mxCell>
        <mxCell id="gozwhajtFq7ZaXICu-Ml-45" value="SHRouteGoTool" style="swimlane;fontStyle=2;align=center;verticalAlign=top;childLayout=stackLayout;horizontal=1;startSize=26;horizontalStack=0;resizeParent=1;resizeLast=0;collapsible=1;marginBottom=0;rounded=0;shadow=0;strokeWidth=1;fillColor=#d5e8d4;strokeColor=#82b366;" parent="WIyWlLk6GJQsqaUBKTNV-1" vertex="1">
          <mxGeometry x="404" y="220" width="300" height="154" as="geometry">
            <mxRectangle x="230" y="140" width="160" height="26" as="alternateBounds" />
          </mxGeometry>
        </mxCell>
        <mxCell id="gozwhajtFq7ZaXICu-Ml-47" value="" style="line;html=1;strokeWidth=1;align=left;verticalAlign=middle;spacingTop=-1;spacingLeft=3;spacingRight=3;rotatable=0;labelPosition=right;points=[];portConstraint=eastwest;" parent="gozwhajtFq7ZaXICu-Ml-45" vertex="1">
          <mxGeometry y="26" width="300" height="8" as="geometry" />
        </mxCell>
        <mxCell id="gozwhajtFq7ZaXICu-Ml-48" value="- (void)matchHref:(NSString *)href&#xa;               Vc:(UIViewController *)viewController&#xa; ReplaceCurrentVC:(BOOL)replace&#xa; ownerVcReferDic:(NSDictionary*)ownerVcReferDic&#xa;           params:(NSDictionary *)params&#xa;     NeedSendDace:(BOOL)sendDace" style="text;align=left;verticalAlign=top;spacingLeft=4;spacingRight=4;overflow=hidden;rotatable=0;points=[[0,0.5],[1,0.5]];portConstraint=eastwest;" parent="gozwhajtFq7ZaXICu-Ml-45" vertex="1">
          <mxGeometry y="34" width="300" height="120" as="geometry" />
        </mxCell>
        <mxCell id="gozwhajtFq7ZaXICu-Ml-10" value="UIViewController+Route" style="swimlane;fontStyle=2;align=center;verticalAlign=top;childLayout=stackLayout;horizontal=1;startSize=26;horizontalStack=0;resizeParent=1;resizeLast=0;collapsible=1;marginBottom=0;rounded=0;shadow=0;strokeWidth=1;fillColor=#d5e8d4;strokeColor=#82b366;" parent="WIyWlLk6GJQsqaUBKTNV-1" vertex="1">
          <mxGeometry x="1210" y="235" width="250" height="120" as="geometry">
            <mxRectangle x="230" y="140" width="160" height="26" as="alternateBounds" />
          </mxGeometry>
        </mxCell>
        <mxCell id="gozwhajtFq7ZaXICu-Ml-11" value="href&#xa;" style="text;align=left;verticalAlign=top;spacingLeft=4;spacingRight=4;overflow=hidden;rotatable=0;points=[[0,0.5],[1,0.5]];portConstraint=eastwest;" parent="gozwhajtFq7ZaXICu-Ml-10" vertex="1">
          <mxGeometry y="26" width="250" height="26" as="geometry" />
        </mxCell>
        <mxCell id="gozwhajtFq7ZaXICu-Ml-14" value="pid" style="text;align=left;verticalAlign=top;spacingLeft=4;spacingRight=4;overflow=hidden;rotatable=0;points=[[0,0.5],[1,0.5]];portConstraint=eastwest;" parent="gozwhajtFq7ZaXICu-Ml-10" vertex="1">
          <mxGeometry y="52" width="250" height="26" as="geometry" />
        </mxCell>
        <mxCell id="gozwhajtFq7ZaXICu-Ml-12" value="" style="line;html=1;strokeWidth=1;align=left;verticalAlign=middle;spacingTop=-1;spacingLeft=3;spacingRight=3;rotatable=0;labelPosition=right;points=[];portConstraint=eastwest;" parent="gozwhajtFq7ZaXICu-Ml-10" vertex="1">
          <mxGeometry y="78" width="250" height="12" as="geometry" />
        </mxCell>
        <mxCell id="39B1gfTcantBv1lsYMs9-3" value="- (NSDictionary *)generateOwnerVcReferDic" style="text;align=left;verticalAlign=top;spacingLeft=4;spacingRight=4;overflow=hidden;rotatable=0;points=[[0,0.5],[1,0.5]];portConstraint=eastwest;" vertex="1" parent="gozwhajtFq7ZaXICu-Ml-10">
          <mxGeometry y="90" width="250" height="30" as="geometry" />
        </mxCell>
        <mxCell id="39B1gfTcantBv1lsYMs9-0" value="route反向解析，现有非route生成Vc，提供反查功能&lt;br&gt;1，&lt;span style=&quot;text-align: center&quot;&gt;SchemeConfig.json添加如下配置&lt;br&gt;2，&lt;/span&gt;&lt;span&gt;generateOwnerVcReferDic函数中href为空进行反向查询&lt;br&gt;&lt;/span&gt;&lt;span style=&quot;text-align: center&quot;&gt;3,&amp;nbsp; AlienSchemeConfigManager:&lt;/span&gt;&amp;nbsp;reverseHref&amp;nbsp;&lt;span style=&quot;text-align: center&quot;&gt;进行反向解析查询实现&lt;br&gt;&lt;/span&gt;" style="rounded=0;whiteSpace=wrap;html=1;align=left;" vertex="1" parent="WIyWlLk6GJQsqaUBKTNV-1">
          <mxGeometry x="35" y="860" width="390" height="80" as="geometry" />
        </mxCell>
        <mxCell id="39B1gfTcantBv1lsYMs9-1" value="&lt;span&gt;&amp;nbsp;{&lt;/span&gt;&lt;br&gt;&lt;div&gt;&lt;div&gt;&amp;nbsp; &amp;nbsp; &amp;nbsp; &amp;nbsp; &quot;reserveR&lt;span&gt;outeKey&quot;: &quot;reserve&quot;,&lt;/span&gt;&lt;/div&gt;&lt;div&gt;&amp;nbsp; &amp;nbsp; &amp;nbsp; &amp;nbsp; &quot;routes&quot;: {&lt;/div&gt;&lt;div&gt;&amp;nbsp; &amp;nbsp; &amp;nbsp; &amp;nbsp; &amp;nbsp; &amp;nbsp; &quot;SHBBSHomeVC&quot;: {&lt;/div&gt;&lt;div&gt;&amp;nbsp; &amp;nbsp; &amp;nbsp; &amp;nbsp; &amp;nbsp; &amp;nbsp; &amp;nbsp; &amp;nbsp; &quot;href&quot;: &quot;shihuo://www.shihuo.cn?route=bbs_home&quot;&lt;/div&gt;&lt;div&gt;&amp;nbsp; &amp;nbsp; &amp;nbsp; &amp;nbsp; &amp;nbsp; &amp;nbsp; }&lt;/div&gt;&lt;div&gt;&amp;nbsp; &amp;nbsp; &amp;nbsp; &amp;nbsp; }&lt;/div&gt;&lt;div&gt;&amp;nbsp; &amp;nbsp; }&lt;/div&gt;&lt;/div&gt;" style="rounded=0;whiteSpace=wrap;html=1;" vertex="1" parent="WIyWlLk6GJQsqaUBKTNV-1">
          <mxGeometry x="150" y="960" width="390" height="140" as="geometry" />
        </mxCell>
        <mxCell id="39B1gfTcantBv1lsYMs9-4" value="路由和埋点函数调整&lt;br&gt;1，href和pid和当前页面对象绑定&lt;br&gt;&lt;div&gt;&lt;span&gt;2，ownerVcReferDic：当前页面href和pid字段&lt;br&gt;&lt;/span&gt;&lt;span&gt;3，nextPid: 路由跳转埋点-添加下个页面pid&lt;/span&gt;&lt;span&gt;&lt;br&gt;&lt;/span&gt;&lt;/div&gt;" style="rounded=0;whiteSpace=wrap;html=1;align=left;" vertex="1" parent="WIyWlLk6GJQsqaUBKTNV-1">
          <mxGeometry x="40" y="105" width="250" height="95" as="geometry" />
        </mxCell>
        <mxCell id="39B1gfTcantBv1lsYMs9-5" value="网络请求函数调整&lt;br&gt;1，针对最新版本网络请求库&lt;br&gt;2，添加header参数 传入ownerVcReferDic" style="rounded=0;whiteSpace=wrap;html=1;align=left;" vertex="1" parent="WIyWlLk6GJQsqaUBKTNV-1">
          <mxGeometry x="35" y="450" width="260" height="60" as="geometry" />
        </mxCell>
        <mxCell id="39B1gfTcantBv1lsYMs9-11" style="edgeStyle=orthogonalEdgeStyle;rounded=0;orthogonalLoop=1;jettySize=auto;html=1;exitX=1;exitY=0.5;exitDx=0;exitDy=0;entryX=0;entryY=0.5;entryDx=0;entryDy=0;" edge="1" parent="WIyWlLk6GJQsqaUBKTNV-1" source="gozwhajtFq7ZaXICu-Ml-48" target="gozwhajtFq7ZaXICu-Ml-34">
          <mxGeometry relative="1" as="geometry" />
        </mxCell>
        <mxCell id="39B1gfTcantBv1lsYMs9-12" style="edgeStyle=orthogonalEdgeStyle;rounded=0;orthogonalLoop=1;jettySize=auto;html=1;exitX=1;exitY=0.5;exitDx=0;exitDy=0;entryX=0;entryY=0.5;entryDx=0;entryDy=0;" edge="1" parent="WIyWlLk6GJQsqaUBKTNV-1" source="gozwhajtFq7ZaXICu-Ml-48" target="gozwhajtFq7ZaXICu-Ml-31">
          <mxGeometry relative="1" as="geometry" />
        </mxCell>
        <mxCell id="39B1gfTcantBv1lsYMs9-13" value="call" style="text;html=1;align=center;verticalAlign=middle;resizable=0;points=[];autosize=1;" vertex="1" parent="WIyWlLk6GJQsqaUBKTNV-1">
          <mxGeometry x="720" y="290" width="30" height="20" as="geometry" />
        </mxCell>
        <mxCell id="39B1gfTcantBv1lsYMs9-14" style="edgeStyle=orthogonalEdgeStyle;rounded=0;orthogonalLoop=1;jettySize=auto;html=1;exitX=1;exitY=0.5;exitDx=0;exitDy=0;entryX=0;entryY=0.5;entryDx=0;entryDy=0;" edge="1" parent="WIyWlLk6GJQsqaUBKTNV-1" source="gozwhajtFq7ZaXICu-Ml-31" target="gozwhajtFq7ZaXICu-Ml-14">
          <mxGeometry relative="1" as="geometry" />
        </mxCell>
        <mxCell id="39B1gfTcantBv1lsYMs9-15" style="edgeStyle=orthogonalEdgeStyle;rounded=0;orthogonalLoop=1;jettySize=auto;html=1;exitX=1;exitY=0.5;exitDx=0;exitDy=0;entryX=0;entryY=0.5;entryDx=0;entryDy=0;" edge="1" parent="WIyWlLk6GJQsqaUBKTNV-1" source="gozwhajtFq7ZaXICu-Ml-31" target="gozwhajtFq7ZaXICu-Ml-11">
          <mxGeometry relative="1" as="geometry" />
        </mxCell>
        <mxCell id="39B1gfTcantBv1lsYMs9-16" value="fetch" style="text;html=1;align=center;verticalAlign=middle;resizable=0;points=[];autosize=1;" vertex="1" parent="WIyWlLk6GJQsqaUBKTNV-1">
          <mxGeometry x="1201" y="1010" width="40" height="20" as="geometry" />
        </mxCell>
        <mxCell id="39B1gfTcantBv1lsYMs9-19" value="call" style="text;html=1;align=center;verticalAlign=middle;resizable=0;points=[];autosize=1;" vertex="1" parent="WIyWlLk6GJQsqaUBKTNV-1">
          <mxGeometry x="674" y="640" width="30" height="20" as="geometry" />
        </mxCell>
        <mxCell id="39B1gfTcantBv1lsYMs9-21" style="edgeStyle=orthogonalEdgeStyle;rounded=0;orthogonalLoop=1;jettySize=auto;html=1;exitX=1;exitY=0.5;exitDx=0;exitDy=0;entryX=1;entryY=0.5;entryDx=0;entryDy=0;" edge="1" parent="WIyWlLk6GJQsqaUBKTNV-1" source="39B1gfTcantBv1lsYMs9-3" target="39B1gfTcantBv1lsYMs9-9">
          <mxGeometry relative="1" as="geometry" />
        </mxCell>
        <mxCell id="gozwhajtFq7ZaXICu-Ml-26" value="StatisticsEvent" style="swimlane;fontStyle=2;align=center;verticalAlign=top;childLayout=stackLayout;horizontal=1;startSize=26;horizontalStack=0;resizeParent=1;resizeLast=0;collapsible=1;marginBottom=0;rounded=0;shadow=0;strokeWidth=1;fillColor=#d5e8d4;strokeColor=#82b366;" parent="WIyWlLk6GJQsqaUBKTNV-1" vertex="1">
          <mxGeometry x="764" y="220" width="386" height="160" as="geometry">
            <mxRectangle x="230" y="140" width="160" height="26" as="alternateBounds" />
          </mxGeometry>
        </mxCell>
        <mxCell id="gozwhajtFq7ZaXICu-Ml-28" value="" style="line;html=1;strokeWidth=1;align=left;verticalAlign=middle;spacingTop=-1;spacingLeft=3;spacingRight=3;rotatable=0;labelPosition=right;points=[];portConstraint=eastwest;strokeColor=none;" parent="gozwhajtFq7ZaXICu-Ml-26" vertex="1">
          <mxGeometry y="26" width="386" height="8" as="geometry" />
        </mxCell>
        <mxCell id="gozwhajtFq7ZaXICu-Ml-30" value="- (SHSpmHref *)sendSpmType: (SHSPMType)typeEvent Event:(NSString *)event spm:(NSString *)spm 埋点调用外迁" style="text;align=left;verticalAlign=top;spacingLeft=4;spacingRight=4;overflow=hidden;rotatable=0;points=[[0,0.5],[1,0.5]];portConstraint=eastwest;whiteSpace=wrap;strokeColor=#000000;" parent="gozwhajtFq7ZaXICu-Ml-26" vertex="1">
          <mxGeometry y="34" width="386" height="40" as="geometry" />
        </mxCell>
        <mxCell id="gozwhajtFq7ZaXICu-Ml-34" value="- (void)sendDaceEvent:(NSString *)event nextPid:(NSString *)nextPid ownerVcReferDic:(NSDictionary*)ownerVcReferDic" style="text;align=left;verticalAlign=top;spacingLeft=4;spacingRight=4;overflow=hidden;rotatable=0;points=[[0,0.5],[1,0.5]];portConstraint=eastwest;strokeColor=#000000;whiteSpace=wrap;" parent="gozwhajtFq7ZaXICu-Ml-26" vertex="1">
          <mxGeometry y="74" width="386" height="40" as="geometry" />
        </mxCell>
        <mxCell id="gozwhajtFq7ZaXICu-Ml-31" value="-(NString*)generatePidWithHref:(NSString *)href udid:(NSString*)udid" style="text;align=left;verticalAlign=top;spacingLeft=4;spacingRight=4;overflow=hidden;rotatable=0;points=[[0,0.5],[1,0.5]];portConstraint=eastwest;whiteSpace=wrap;strokeColor=#000000;" parent="gozwhajtFq7ZaXICu-Ml-26" vertex="1">
          <mxGeometry y="114" width="386" height="40" as="geometry" />
        </mxCell>
        <mxCell id="39B1gfTcantBv1lsYMs9-33" style="edgeStyle=orthogonalEdgeStyle;rounded=0;orthogonalLoop=1;jettySize=auto;html=1;exitX=1;exitY=0.5;exitDx=0;exitDy=0;" edge="1" parent="WIyWlLk6GJQsqaUBKTNV-1" source="39B1gfTcantBv1lsYMs9-31" target="gozwhajtFq7ZaXICu-Ml-48">
          <mxGeometry relative="1" as="geometry" />
        </mxCell>
        <mxCell id="39B1gfTcantBv1lsYMs9-34" value="event" style="text;html=1;align=center;verticalAlign=middle;resizable=0;points=[];autosize=1;" vertex="1" parent="WIyWlLk6GJQsqaUBKTNV-1">
          <mxGeometry x="97" y="304" width="40" height="20" as="geometry" />
        </mxCell>
        <mxCell id="39B1gfTcantBv1lsYMs9-35" value="save" style="text;html=1;align=center;verticalAlign=middle;resizable=0;points=[];autosize=1;" vertex="1" parent="WIyWlLk6GJQsqaUBKTNV-1">
          <mxGeometry x="1155" y="250" width="40" height="20" as="geometry" />
        </mxCell>
        <mxCell id="39B1gfTcantBv1lsYMs9-36" style="edgeStyle=orthogonalEdgeStyle;rounded=0;orthogonalLoop=1;jettySize=auto;html=1;exitX=1;exitY=0.5;exitDx=0;exitDy=0;entryX=0;entryY=0.5;entryDx=0;entryDy=0;" edge="1" parent="WIyWlLk6GJQsqaUBKTNV-1" source="39B1gfTcantBv1lsYMs9-31" target="gozwhajtFq7ZaXICu-Ml-38">
          <mxGeometry relative="1" as="geometry">
            <Array as="points">
              <mxPoint x="360" y="340" />
              <mxPoint x="360" y="530" />
              <mxPoint x="140" y="530" />
              <mxPoint x="140" y="669" />
            </Array>
          </mxGeometry>
        </mxCell>
        <mxCell id="gozwhajtFq7ZaXICu-Ml-35" value="SHHTTPClientProvider" style="swimlane;fontStyle=2;align=center;verticalAlign=top;childLayout=stackLayout;horizontal=1;startSize=26;horizontalStack=0;resizeParent=1;resizeLast=0;collapsible=1;marginBottom=0;rounded=0;shadow=0;strokeWidth=1;fillColor=#d5e8d4;strokeColor=#82b366;" parent="WIyWlLk6GJQsqaUBKTNV-1" vertex="1">
          <mxGeometry x="150" y="550" width="510" height="250" as="geometry">
            <mxRectangle x="230" y="140" width="160" height="26" as="alternateBounds" />
          </mxGeometry>
        </mxCell>
        <mxCell id="gozwhajtFq7ZaXICu-Ml-37" value="" style="line;html=1;strokeWidth=1;align=left;verticalAlign=middle;spacingTop=-1;spacingLeft=3;spacingRight=3;rotatable=0;labelPosition=right;points=[];portConstraint=eastwest;" parent="gozwhajtFq7ZaXICu-Ml-35" vertex="1">
          <mxGeometry y="26" width="510" height="8" as="geometry" />
        </mxCell>
        <mxCell id="gozwhajtFq7ZaXICu-Ml-38" value="    @objc dynamic func netRequest(&#xa;                         severUrl: String,&#xa;                                  url: String,&#xa;                                  header: [String: Any]? = nil,&#xa;                                  params: [String: Any]? = nil,&#xa;                                  method: HTTPReqMethodTypeE = .GET,&#xa;                                  testFilePath: String? = nil,&#xa;                                  isNeedSHURLSigned: Bool = true,&#xa;                                  cachePolicy: SHAPICachePolicy = .protocol,&#xa;                                  requestSerializerType: SHRequestSerializerType = .HTTP,&#xa;                                  success: @escaping SHSuccessCallbackBlock,&#xa;                                  failure: @escaping SHFailureCallbackBlock) -&gt; URLSessionDataTask? {" style="text;align=left;verticalAlign=top;spacingLeft=4;spacingRight=4;overflow=hidden;rotatable=0;points=[[0,0.5],[1,0.5]];portConstraint=eastwest;whiteSpace=wrap;" parent="gozwhajtFq7ZaXICu-Ml-35" vertex="1">
          <mxGeometry y="34" width="510" height="170" as="geometry" />
        </mxCell>
        <mxCell id="39B1gfTcantBv1lsYMs9-38" style="edgeStyle=orthogonalEdgeStyle;rounded=0;orthogonalLoop=1;jettySize=auto;html=1;exitX=1;exitY=0.5;exitDx=0;exitDy=0;entryX=0;entryY=0.5;entryDx=0;entryDy=0;" edge="1" parent="WIyWlLk6GJQsqaUBKTNV-1" source="gozwhajtFq7ZaXICu-Ml-38" target="gozwhajtFq7ZaXICu-Ml-44">
          <mxGeometry relative="1" as="geometry" />
        </mxCell>
        <mxCell id="gozwhajtFq7ZaXICu-Ml-41" value="NSObject+SHHTTPGeneralHeaders" style="swimlane;fontStyle=2;align=center;verticalAlign=top;childLayout=stackLayout;horizontal=1;startSize=26;horizontalStack=0;resizeParent=1;resizeLast=0;collapsible=1;marginBottom=0;rounded=0;shadow=0;strokeWidth=1;fillColor=#d5e8d4;strokeColor=#82b366;" parent="WIyWlLk6GJQsqaUBKTNV-1" vertex="1">
          <mxGeometry x="730" y="610" width="490" height="110" as="geometry">
            <mxRectangle x="230" y="140" width="160" height="26" as="alternateBounds" />
          </mxGeometry>
        </mxCell>
        <mxCell id="gozwhajtFq7ZaXICu-Ml-43" value="" style="line;html=1;strokeWidth=1;align=left;verticalAlign=middle;spacingTop=-1;spacingLeft=3;spacingRight=3;rotatable=0;labelPosition=right;points=[];portConstraint=eastwest;strokeColor=none;" parent="gozwhajtFq7ZaXICu-Ml-41" vertex="1">
          <mxGeometry y="26" width="490" height="8" as="geometry" />
        </mxCell>
        <mxCell id="gozwhajtFq7ZaXICu-Ml-44" value="-(NSDictionary *)obtainSHHTTPCommonGeneralHeaders:(NSString *)urlString  customer:(NSDictionary *)headers&#xa;" style="text;align=left;verticalAlign=top;spacingLeft=4;spacingRight=4;overflow=hidden;rotatable=0;points=[[0,0.5],[1,0.5]];portConstraint=eastwest;whiteSpace=wrap;strokeColor=#000000;" parent="gozwhajtFq7ZaXICu-Ml-41" vertex="1">
          <mxGeometry y="34" width="490" height="50" as="geometry" />
        </mxCell>
        <mxCell id="39B1gfTcantBv1lsYMs9-41" style="edgeStyle=orthogonalEdgeStyle;rounded=0;orthogonalLoop=1;jettySize=auto;html=1;entryX=0;entryY=0.281;entryDx=0;entryDy=0;entryPerimeter=0;" edge="1" parent="WIyWlLk6GJQsqaUBKTNV-1" source="39B1gfTcantBv1lsYMs9-40" target="39B1gfTcantBv1lsYMs9-31">
          <mxGeometry relative="1" as="geometry" />
        </mxCell>
        <mxCell id="39B1gfTcantBv1lsYMs9-40" value="start" style="rounded=0;whiteSpace=wrap;html=1;strokeColor=#000000;" vertex="1" parent="WIyWlLk6GJQsqaUBKTNV-1">
          <mxGeometry x="42" y="317" width="45" height="20" as="geometry" />
        </mxCell>
        <mxCell id="39B1gfTcantBv1lsYMs9-42" value="&lt;span&gt;SchemeConfig.json&lt;/span&gt;" style="rounded=0;whiteSpace=wrap;html=1;strokeColor=#000000;" vertex="1" parent="WIyWlLk6GJQsqaUBKTNV-1">
          <mxGeometry x="150" y="960" width="120" height="30" as="geometry" />
        </mxCell>
        <mxCell id="39B1gfTcantBv1lsYMs9-43" style="edgeStyle=orthogonalEdgeStyle;rounded=0;orthogonalLoop=1;jettySize=auto;html=1;exitX=0;exitY=0.5;exitDx=0;exitDy=0;" edge="1" parent="WIyWlLk6GJQsqaUBKTNV-1" source="39B1gfTcantBv1lsYMs9-9" target="39B1gfTcantBv1lsYMs9-1">
          <mxGeometry relative="1" as="geometry" />
        </mxCell>
        <mxCell id="39B1gfTcantBv1lsYMs9-6" value="AlienSchemeConfigManager" style="swimlane;fontStyle=2;align=center;verticalAlign=top;childLayout=stackLayout;horizontal=1;startSize=26;horizontalStack=0;resizeParent=1;resizeLast=0;collapsible=1;marginBottom=0;rounded=0;shadow=0;strokeWidth=1;fillColor=#d5e8d4;strokeColor=#82b366;" vertex="1" parent="WIyWlLk6GJQsqaUBKTNV-1">
          <mxGeometry x="730" y="970" width="420" height="84" as="geometry">
            <mxRectangle x="230" y="140" width="160" height="26" as="alternateBounds" />
          </mxGeometry>
        </mxCell>
        <mxCell id="39B1gfTcantBv1lsYMs9-8" value="" style="line;html=1;strokeWidth=1;align=left;verticalAlign=middle;spacingTop=-1;spacingLeft=3;spacingRight=3;rotatable=0;labelPosition=right;points=[];portConstraint=eastwest;" vertex="1" parent="39B1gfTcantBv1lsYMs9-6">
          <mxGeometry y="26" width="420" height="8" as="geometry" />
        </mxCell>
        <mxCell id="39B1gfTcantBv1lsYMs9-9" value="-(NSString*)reverseHref:(NSString *)urlString" style="text;align=left;verticalAlign=top;spacingLeft=4;spacingRight=4;overflow=hidden;rotatable=0;points=[[0,0.5],[1,0.5]];portConstraint=eastwest;whiteSpace=wrap;" vertex="1" parent="39B1gfTcantBv1lsYMs9-6">
          <mxGeometry y="34" width="420" height="50" as="geometry" />
        </mxCell>
        <mxCell id="39B1gfTcantBv1lsYMs9-44" value="load" style="text;html=1;align=center;verticalAlign=middle;resizable=0;points=[];autosize=1;" vertex="1" parent="WIyWlLk6GJQsqaUBKTNV-1">
          <mxGeometry x="610" y="1002" width="40" height="20" as="geometry" />
        </mxCell>
        <mxCell id="39B1gfTcantBv1lsYMs9-48" value="call" style="text;html=1;align=center;verticalAlign=middle;resizable=0;points=[];autosize=1;" vertex="1" parent="WIyWlLk6GJQsqaUBKTNV-1">
          <mxGeometry x="340" y="317" width="30" height="20" as="geometry" />
        </mxCell>
      </root>
    </mxGraphModel>
  </diagram>
</mxfile>
